<svg xmlns="http://www.w3.org/2000/svg" viewBox="0 0 32 32" width="100%" height="100%">
    <g fill="#233329">
        <path d="M14,6 C14,5.5 14.5,5 15,5 L17,5 C17.5,5 18,5.5 18,6 L18,12 L14,12 Z"/>
        <path d="M14,13 L18,13 L18,20 L14,20 Z"/>
        <path d="M14,21 L18,21 L18,27 C18,27.5 17.5,28 17,28 L15,28 C14.5,28 14,27.5 14,27 Z"/>
        <path d="M7,12 C7,11.5 7.4,11 7.9,11 L9.6,11 C10.1,11 10.5,11.5 10.5,12 L10.5,17 L7,17 Z"/>
        <path d="M7,18 L10.5,18 L10.5,23 L7,23 Z"/>
        <path d="M7,24 L10.5,24 L10.5,27 C10.5,27.5 10.1,28 9.6,28 L7.9,28 C7.4,28 7,27.5 7,27 Z"/>
        <path d="M21.5,9 C21.5,8.5 21.9,8 22.4,8 L24.1,8 C24.6,8 25,8.5 25,9 L25,15 L21.5,15 Z"/>
        <path d="M21.5,16 L25,16 L25,22 L21.5,22 Z"/>
        <path d="M21.5,23 L25,23 L25,27 C25,27.5 24.6,28 24.1,28 L22.4,28 C21.9,28 21.5,27.5 21.5,27 Z"/>
        <path d="M10.5,14 C11.5,13.5 13,14 13.5,14.5 C13,15.5 11.5,15.5 10.5,14 Z"/>
        <path d="M21.5,18 C20.5,17.5 19,18 18.5,18.5 C19,19.5 20.5,19.5 21.5,18 Z"/>
    </g>
</svg>
